<svg width="50" height="20" viewBox="0 0 50 20" fill="none" xmlns="http://www.w3.org/2000/svg">
<rect width="50" height="20" rx="3" fill="#6F6EFF"/>
<path d="M12.936 5.6H7.236V10.88C7.236 11.2 7.212 11.496 7.164 11.768C7.116 12.04 7.044 12.28 6.948 12.488C6.852 12.688 6.736 12.844 6.6 12.956C6.464 13.068 6.304 13.124 6.12 13.124V14C6.576 14 6.956 13.868 7.26 13.604C7.572 13.34 7.804 12.988 7.956 12.548C8.116 12.108 8.196 11.632 8.196 11.12V6.56H11.916V14H12.936V5.6ZM14.9304 11.48H19.6464C19.6544 11.432 19.6584 11.384 19.6584 11.336C19.6584 11.288 19.6584 11.24 19.6584 11.192C19.6584 10.608 19.5504 10.108 19.3344 9.692C19.1184 9.268 18.8144 8.94 18.4224 8.708C18.0304 8.476 17.5744 8.36 17.0544 8.36C16.5824 8.36 16.1544 8.456 15.7704 8.648C15.3944 8.84 15.0864 9.108 14.8464 9.452C14.6064 9.796 14.4464 10.196 14.3664 10.652C14.3504 10.748 14.3384 10.844 14.3304 10.94C14.3224 11.036 14.3184 11.136 14.3184 11.24C14.3184 11.792 14.4304 12.288 14.6544 12.728C14.8864 13.16 15.1984 13.5 15.5904 13.748C15.9904 13.996 16.4384 14.12 16.9344 14.12C17.4144 14.12 17.8144 14.064 18.1344 13.952C18.4544 13.832 18.7264 13.668 18.9504 13.46C19.1744 13.244 19.3784 12.996 19.5624 12.716L18.7824 12.224C18.6624 12.424 18.5184 12.6 18.3504 12.752C18.1824 12.896 17.9904 13.012 17.7744 13.1C17.5664 13.18 17.3264 13.22 17.0544 13.22C16.6944 13.22 16.3824 13.144 16.1184 12.992C15.8544 12.84 15.6504 12.616 15.5064 12.32C15.3624 12.024 15.2904 11.664 15.2904 11.24L15.3144 10.88C15.3144 10.536 15.3904 10.24 15.5424 9.992C15.7024 9.736 15.9144 9.54 16.1784 9.404C16.4424 9.268 16.7344 9.2 17.0544 9.2C17.3744 9.2 17.6424 9.264 17.8584 9.392C18.0824 9.512 18.2544 9.684 18.3744 9.908C18.5024 10.124 18.5824 10.376 18.6144 10.664H14.9304V11.48ZM20.9142 8.48V14H21.8742V8.48H20.9142ZM23.9142 8.48L21.5142 10.76L24.1542 14H25.3542L22.7142 10.76L25.1142 8.48H23.9142ZM30.7594 13.1V8.48H29.7994V13.1H27.2194V8.48H26.2594V14H30.8794V15.08H31.7194V13.1H30.7594ZM37.6645 9.44L37.7245 8.06L33.1645 13.04L33.1045 14.42L37.6645 9.44ZM34.0645 8.48H33.1045V14.42L34.0645 13.1V8.48ZM37.7245 8.06L36.7645 9.38V14H37.7245V8.06ZM40.3756 14L42.4156 11.12H41.3596L39.3196 14H40.3756ZM43.8796 14V8.48H42.9196V14H43.8796ZM43.3156 10.952H41.5996C41.3676 10.952 41.1716 10.924 41.0116 10.868C40.8596 10.804 40.7436 10.712 40.6636 10.592C40.5836 10.472 40.5436 10.32 40.5436 10.136C40.5436 9.952 40.5836 9.8 40.6636 9.68C40.7436 9.56 40.8596 9.472 41.0116 9.416C41.1716 9.352 41.3676 9.32 41.5996 9.32H43.3156V8.48H41.5996C41.2236 8.48 40.8796 8.536 40.5676 8.648C40.2636 8.76 40.0236 8.936 39.8476 9.176C39.6716 9.416 39.5836 9.736 39.5836 10.136C39.5836 10.528 39.6716 10.848 39.8476 11.096C40.0236 11.336 40.2636 11.512 40.5676 11.624C40.8796 11.736 41.2236 11.792 41.5996 11.792H43.3156V10.952Z" fill="white"/>
</svg>
