<svg width="48" height="10" viewBox="0 0 48 10" fill="none" xmlns="http://www.w3.org/2000/svg">
<g clip-path="url(#clip0_0_186)">
<path d="M13.431 5.45C13.431 4.86933 13.5523 4.35367 13.795 3.903C14.0377 3.45233 14.3713 3.097 14.796 2.837C15.2207 2.577 15.7147 2.447 16.278 2.447C16.85 2.447 17.3483 2.577 17.773 2.837C18.1977 3.097 18.527 3.45233 18.761 3.903C18.995 4.35367 19.112 4.86933 19.112 5.45C19.112 6.03067 18.9907 6.54633 18.748 6.997C18.514 7.44767 18.1847 7.803 17.76 8.063C17.3353 8.323 16.8413 8.453 16.278 8.453C15.7147 8.453 15.2207 8.323 14.796 8.063C14.3713 7.803 14.0377 7.44767 13.795 6.997C13.5523 6.54633 13.431 6.03067 13.431 5.45ZM11.468 5.45C11.468 6.13467 11.585 6.77167 11.819 7.361C12.053 7.94167 12.3867 8.44867 12.82 8.882C13.2533 9.31533 13.7603 9.65333 14.341 9.896C14.9303 10.13 15.576 10.247 16.278 10.247C16.98 10.247 17.6213 10.13 18.202 9.896C18.7913 9.65333 19.2983 9.31533 19.723 8.882C20.1563 8.44867 20.49 7.94167 20.724 7.361C20.9667 6.77167 21.088 6.13467 21.088 5.45C21.088 4.75667 20.9667 4.124 20.724 3.552C20.49 2.97133 20.152 2.46867 19.71 2.044C19.2767 1.61933 18.7697 1.29433 18.189 1.069C17.6083 0.834999 16.9713 0.717999 16.278 0.717999C15.5933 0.717999 14.9563 0.834999 14.367 1.069C13.7863 1.29433 13.2793 1.61933 12.846 2.044C12.4127 2.46867 12.0747 2.97133 11.832 3.552C11.5893 4.124 11.468 4.75667 11.468 5.45ZM26.2301 6.36V10H27.9721V6.178C27.9721 5.45867 27.7988 4.89967 27.4521 4.501C27.1054 4.09367 26.5768 3.89 25.8661 3.89C25.4414 3.89 25.0774 3.981 24.7741 4.163C24.4794 4.33633 24.2411 4.592 24.0591 4.93V4.02H22.3691V10H24.0591V6.36C24.0591 6.10867 24.1068 5.892 24.2021 5.71C24.2974 5.528 24.4361 5.38933 24.6181 5.294C24.8001 5.19 25.0081 5.138 25.2421 5.138C25.5888 5.138 25.8401 5.242 25.9961 5.45C26.1521 5.658 26.2301 5.96133 26.2301 6.36ZM29.6308 -0.14V10H31.3208V-0.14H29.6308ZM32.9044 1.706C32.9044 1.97467 33.0041 2.2 33.2034 2.382C33.4027 2.564 33.6411 2.655 33.9184 2.655C34.1957 2.655 34.4297 2.564 34.6204 2.382C34.8197 2.2 34.9194 1.97467 34.9194 1.706C34.9194 1.42867 34.8197 1.20333 34.6204 1.03C34.4297 0.848 34.1957 0.757 33.9184 0.757C33.6411 0.757 33.4027 0.848 33.2034 1.03C33.0041 1.20333 32.9044 1.42867 32.9044 1.706ZM33.0864 4.02V10H34.7244V4.02H33.0864ZM40.3727 6.36V10H42.1147V6.178C42.1147 5.45867 41.9414 4.89967 41.5947 4.501C41.248 4.09367 40.7194 3.89 40.0087 3.89C39.584 3.89 39.22 3.981 38.9167 4.163C38.622 4.33633 38.3837 4.592 38.2017 4.93V4.02H36.5117V10H38.2017V6.36C38.2017 6.10867 38.2494 5.892 38.3447 5.71C38.44 5.528 38.5787 5.38933 38.7607 5.294C38.9427 5.19 39.1507 5.138 39.3847 5.138C39.7314 5.138 39.9827 5.242 40.1387 5.45C40.2947 5.658 40.3727 5.96133 40.3727 6.36ZM46.5944 10.13C47.3137 10.13 47.9291 9.99133 48.4404 9.714C48.9604 9.428 49.3764 9.00333 49.6884 8.44L48.2194 7.985C48.0461 8.271 47.8251 8.48767 47.5564 8.635C47.2964 8.77367 46.9801 8.843 46.6074 8.843C46.2781 8.843 45.9964 8.76933 45.7624 8.622C45.5284 8.47467 45.3507 8.26233 45.2294 7.985C45.1167 7.70767 45.0604 7.36967 45.0604 6.971C45.0691 6.555 45.1297 6.20833 45.2424 5.931C45.3637 5.645 45.5327 5.43267 45.7494 5.294C45.9747 5.14667 46.2521 5.073 46.5814 5.073C46.8501 5.073 47.0841 5.13367 47.2834 5.255C47.4827 5.37633 47.6344 5.541 47.7384 5.749C47.8511 5.957 47.9074 6.20833 47.9074 6.503C47.9074 6.56367 47.8901 6.64167 47.8554 6.737C47.8294 6.82367 47.7991 6.893 47.7644 6.945L48.2194 6.347H44.3324V7.387H49.6884C49.6971 7.335 49.7014 7.26567 49.7014 7.179C49.7101 7.09233 49.7144 7.01 49.7144 6.932C49.7144 6.29067 49.5931 5.74467 49.3504 5.294C49.1077 4.83467 48.7524 4.488 48.2844 4.254C47.8251 4.01133 47.2661 3.89 46.6074 3.89C45.9487 3.89 45.3767 4.02 44.8914 4.28C44.4061 4.53133 44.0291 4.891 43.7604 5.359C43.5004 5.81833 43.3704 6.36867 43.3704 7.01C43.3704 7.64267 43.5004 8.193 43.7604 8.661C44.0291 9.12033 44.4061 9.48 44.8914 9.74C45.3767 10 45.9444 10.13 46.5944 10.13Z" fill="#24CB8D"/>
<circle cx="3" cy="6" r="3" fill="#24CB8D"/>
</g>
<defs>
<clipPath id="clip0_0_186">
<rect width="48" height="10" fill="white"/>
</clipPath>
</defs>
</svg>
