<svg width="40" height="14" viewBox="0 0 40 14" fill="none" xmlns="http://www.w3.org/2000/svg">
<g clip-path="url(#clip0_0_183)">
<g filter="url(#filter0_d_0_183)">
<rect width="40" height="14" rx="4" fill="url(#paint0_linear_0_183)"/>
</g>
<path d="M8.88 3.3V11H9.815V3.3H8.88ZM9.397 4.18H10.97C11.4687 4.18 11.872 4.301 12.18 4.543C12.4953 4.77767 12.653 5.13333 12.653 5.61C12.653 6.07933 12.4953 6.435 12.18 6.677C11.872 6.919 11.4687 7.04 10.97 7.04H9.397V7.92H10.97C11.4687 7.92 11.9123 7.82833 12.301 7.645C12.697 7.45433 13.0087 7.18667 13.236 6.842C13.4707 6.49 13.588 6.07933 13.588 5.61C13.588 5.13333 13.4707 4.72267 13.236 4.378C13.0087 4.03333 12.697 3.76933 12.301 3.586C11.9123 3.39533 11.4687 3.3 10.97 3.3H9.397V4.18ZM16.2814 7.205L18.9214 11H20.0764L17.3264 7.205H16.2814ZM14.9064 3.3V11H15.8414V3.3H14.9064ZM15.4234 4.125H16.9964C17.3264 4.125 17.616 4.18367 17.8654 4.301C18.122 4.41833 18.32 4.587 18.4594 4.807C18.606 5.027 18.6794 5.29467 18.6794 5.61C18.6794 5.92533 18.606 6.193 18.4594 6.413C18.32 6.633 18.122 6.80167 17.8654 6.919C17.616 7.03633 17.3264 7.095 16.9964 7.095H15.4234V7.92H16.9964C17.495 7.92 17.9387 7.82833 18.3274 7.645C18.7234 7.45433 19.035 7.18667 19.2624 6.842C19.497 6.49 19.6144 6.07933 19.6144 5.61C19.6144 5.13333 19.497 4.72267 19.2624 4.378C19.035 4.03333 18.7234 3.76933 18.3274 3.586C17.9387 3.39533 17.495 3.3 16.9964 3.3H15.4234V4.125ZM21.6116 7.15C21.6116 6.57067 21.7363 6.05367 21.9856 5.599C22.2423 5.14433 22.5906 4.785 23.0306 4.521C23.4706 4.257 23.9693 4.125 24.5266 4.125C25.0913 4.125 25.59 4.257 26.0226 4.521C26.4626 4.785 26.8073 5.14433 27.0566 5.599C27.3133 6.05367 27.4416 6.57067 27.4416 7.15C27.4416 7.72933 27.3133 8.24633 27.0566 8.701C26.8073 9.15567 26.4626 9.515 26.0226 9.779C25.59 10.043 25.0913 10.175 24.5266 10.175C23.9693 10.175 23.4706 10.043 23.0306 9.779C22.5906 9.515 22.2423 9.15567 21.9856 8.701C21.7363 8.24633 21.6116 7.72933 21.6116 7.15ZM20.6216 7.15C20.6216 7.70733 20.717 8.228 20.9076 8.712C21.1056 9.196 21.3806 9.61767 21.7326 9.977C22.0846 10.329 22.499 10.6077 22.9756 10.813C23.4523 11.011 23.9693 11.11 24.5266 11.11C25.0913 11.11 25.6083 11.011 26.0776 10.813C26.5543 10.6077 26.9686 10.329 27.3206 9.977C27.6726 9.61767 27.944 9.196 28.1346 8.712C28.3326 8.228 28.4316 7.70733 28.4316 7.15C28.4316 6.58533 28.3326 6.06467 28.1346 5.588C27.944 5.104 27.6726 4.686 27.3206 4.334C26.9686 3.97467 26.5543 3.696 26.0776 3.498C25.6083 3.29267 25.0913 3.19 24.5266 3.19C23.9693 3.19 23.4523 3.29267 22.9756 3.498C22.499 3.696 22.0846 3.97467 21.7326 4.334C21.3806 4.686 21.1056 5.104 20.9076 5.588C20.717 6.06467 20.6216 6.58533 20.6216 7.15Z" fill="white"/>
</g>
<defs>
<filter id="filter0_d_0_183" x="-12" y="-12" width="64" height="38" filterUnits="userSpaceOnUse" color-interpolation-filters="sRGB">
<feFlood flood-opacity="0" result="BackgroundImageFix"/>
<feColorMatrix in="SourceAlpha" type="matrix" values="0 0 0 0 0 0 0 0 0 0 0 0 0 0 0 0 0 0 127 0" result="hardAlpha"/>
<feOffset/>
<feGaussianBlur stdDeviation="6"/>
<feColorMatrix type="matrix" values="0 0 0 0 0.435294 0 0 0 0 0.431373 0 0 0 0 1 0 0 0 0.5 0"/>
<feBlend mode="normal" in2="BackgroundImageFix" result="effect1_dropShadow_0_183"/>
<feBlend mode="normal" in="SourceGraphic" in2="effect1_dropShadow_0_183" result="shape"/>
</filter>
<linearGradient id="paint0_linear_0_183" x1="0" y1="14" x2="40" y2="14" gradientUnits="userSpaceOnUse">
<stop stop-color="#6B69F9"/>
<stop offset="1" stop-color="#6F6EFF"/>
</linearGradient>
<clipPath id="clip0_0_183">
<rect width="40" height="14" fill="white"/>
</clipPath>
</defs>
</svg>
